PathFileType	4	(X/Y/Z)	C:\Users\dbl\Desktop\20210112\20210112\bx_n_0_501.trc
DataRate	CameraRate	NumFrames	NumMarkers	Units	OrigDataRate	OrigDataStartFrame	OrigNumFrames
50.00	50.00	       4	43	mm	50.00	1	       339
Frame#	Time	Top.Head			R.Acromium			L.Acromium			Sternum			R.ASIS			L.ASIS			V.Sacral			R.Thigh.Upper			R.Thigh.Front			R.Thigh.Rear			R.Knee.Lat			R.Knee.Med			R.Shank.Upper			R.Shank.Front			R.Shank.Rear			R.Ankle.Lat			R.Midfoot.Lat			R.Toe.Lat			R.Toe.Tip			R.Toe.Med			R.Ankle.Med			R.Midfoot.Sup			R.Heel			L.Thigh.Upper			L.Thigh.Front			L.Thigh.Rear			L.Knee.Lat			L.Knee.Med			L.Shank.Upper			L.Shank.Front			L.Shank.Rear			L.Ankle.Lat			L.Midfoot.Lat			L.Toe.Lat			L.Toe.Tip			L.Toe.Med			L.Ankle.Med			L.Midfoot.Sup			L.Heel			origin1 front left			origin2 front right			origin 3 back right			origin 4 back leftt			
		X1	Y1	Z1	X2	Y2	Z2	X3	Y3	Z3	X4	Y4	Z4	X5	Y5	Z5	X6	Y6	Z6	X7	Y7	Z7	X8	Y8	Z8	X9	Y9	Z9	X10	Y10	Z10	X11	Y11	Z11	X12	Y12	Z12	X13	Y13	Z13	X14	Y14	Z14	X15	Y15	Z15	X16	Y16	Z16	X17	Y17	Z17	X18	Y18	Z18	X19	Y19	Z19	X20	Y20	Z20	X21	Y21	Z21	X22	Y22	Z22	X23	Y23	Z23	X24	Y24	Z24	X25	Y25	Z25	X26	Y26	Z26	X27	Y27	Z27	X28	Y28	Z28	X29	Y29	Z29	X30	Y30	Z30	X31	Y31	Z31	X32	Y32	Z32	X33	Y33	Z33	X34	Y34	Z34	X35	Y35	Z35	X36	Y36	Z36	X37	Y37	Z37	X38	Y38	Z38	X39	Y39	Z39	X40	Y40	Z40	X41	Y41	Z41	X42	Y42	Z42	X43	Y43	Z43	

1	0.000	-670.11963	123.24262	1851.27368	-691.67291	-69.97935	1550.98145	-740.32831	284.57880	1535.20850	-600.36719	109.22835	1359.58240	-589.49298	-4.71794	1056.20593	-604.48041	241.52664	1067.22473	-798.57227	88.34834	1057.99438	-648.25830	-73.10545	871.69305	-578.02698	3.52458	804.27112	-667.98193	-60.95828	756.31097	-690.93762	-35.73257	614.63062	-644.77643	42.42139	538.00922	-699.06903	-33.04401	566.80304	-656.05170	19.50297	519.15344	-742.66095	-49.26670	487.58313	-754.93805	-21.10164	206.95598	-641.44867	-58.85337	164.01770	-599.83777	-61.24508	160.31245	-546.61743	-13.57056	164.74037	-600.64948	38.39848	166.17007	-724.17487	71.52172	215.21910	-676.36719	59.30421	157.41246	-794.42126	33.63062	174.69156	-680.94495	284.36951	874.36334	-586.76990	215.53325	794.64130	-686.69904	269.32806	744.59589	-719.24915	252.85181	643.41351				-706.46234	257.03760	588.99902	-671.49115	196.87280	534.45599	-755.97308	259.87860	501.20300																																					
2	0.020	-669.85980	123.25108	1851.19702	-691.42328	-69.76672	1550.86829	-740.05884	284.64764	1535.19543	-600.10022	109.11359	1359.46765	-589.38806	-4.69908	1056.22083	-604.54645	241.53369	1067.00891	-798.48676	88.43256	1058.10413	-648.12610	-73.27695	871.92590	-577.98279	3.43789	804.39301	-668.02271	-60.91166	756.22229	-691.23157	-35.56731	614.21936	-644.87311	42.30821	537.93103	-699.00720	-33.04421	567.13208	-656.05170	19.50297	519.15344	-742.51184	-49.55083	487.68161	-755.22156	-20.99445	206.69118	-641.39130	-58.84265	164.13084	-599.57910	-61.49154	160.68010	-546.79614	-13.43489	164.73128	-600.67657	38.44273	166.08395	-724.19806	71.75845	215.19846	-676.90350	58.70039	156.73378				-680.86578	284.60501	874.29889	-586.62561	215.64943	794.61914				-719.24567	252.52417	643.11243				-706.46234	257.03760	588.99902	-671.56946	196.92821	534.51392	-756.14850	260.02142	501.19370																																					
3	0.040	-669.35413	123.27214	1851.13794	-691.12543	-69.67992	1550.79688	-739.77411	284.63791	1535.14685	-599.80121	108.73703	1359.63147	-589.09839	-4.54831	1056.10571	-604.44562	241.49986	1066.93201	-798.27844	88.40964	1058.10449	-648.22211	-73.38021	871.85645	-577.97040	3.41486	804.38629	-667.91516	-61.18424	756.18964	-691.20685	-35.58512	614.25104	-644.95038	42.21770	537.70239	-699.07343	-32.97185	567.02197	-656.05170	19.50297	519.15344	-742.51453	-49.41709	487.64142	-754.87402	-21.18866	206.88222	-641.72388	-59.08825	164.04443	-599.64240	-61.42886	160.33257	-546.65631	-13.31978	164.86134	-600.55646	38.43315	166.14557	-724.17487	71.52172	215.21910	-677.08978	58.60966	156.80043				-680.94086	284.72440	874.20251	-586.57709	215.91010	794.57617				-719.29828	252.84441	643.25024				-706.60382	257.13956	589.04095	-671.55444	196.97162	534.32385	-755.97308	259.87860	501.20300																																					
4	0.060	-668.88342	123.30424	1851.15222	-690.92297	-69.71475	1550.70581	-739.51788	284.74161	1535.17908	-599.43878	109.13062	1359.46643	-588.93378	-4.56428	1056.07874	-604.35236	241.43633	1066.91248	-798.18018	88.45285	1058.16431	-648.18707	-73.20694	871.79077	-578.06818	3.31496	804.27826	-667.91516	-61.18424	756.18964	-691.52374	-35.96762	614.70575	-644.99280	42.26574	537.73041	-699.32550	-33.03316	567.30853	-656.14972	19.50974	519.22552	-742.79730	-49.38895	487.73123	-754.96130	-21.03811	206.95123	-641.78088	-58.96716	163.88564	-599.54211	-61.53885	160.50551	-546.51721	-13.72620	164.51401	-600.45129	38.36213	166.24448	-724.17487	71.52172	215.21910	-676.05762	59.27760	157.84625				-680.82544	284.79901	874.32825	-586.64545	215.71545	794.54028				-719.21045	252.84059	643.29254				-706.46234	257.03760	588.99902	-671.63403	197.12581	534.38947	-756.04633	260.16052	501.38910																																					
